<?xml version="1.0" encoding="utf-8"?>
<!-- Generator: Adobe Illustrator 17.0.0, SVG Export Plug-In . SVG Version: 6.00 Build 0)  -->
<!DOCTYPE svg PUBLIC "-//W3C//DTD SVG 1.1//EN" "http://www.w3.org/Graphics/SVG/1.1/DTD/svg11.dtd">
<svg version="1.1" id="Layer_1" xmlns="http://www.w3.org/2000/svg" xmlns:xlink="http://www.w3.org/1999/xlink" x="0px" y="0px"
	 width="200px" height="200px" viewBox="0 0 200 200" enable-background="new 0 0 200 200" xml:space="preserve">
<g>
	<path fill-rule="evenodd" clip-rule="evenodd" fill="#C6D4E4" d="M126.162,39.831c-0.095-1.695,1.004-3.284,2.708-3.748
		l15.146-4.13c0.629-0.172,1.309-0.199,1.984-0.015l14.986,4.086c1.727,0.471,3.026,1.965,2.923,3.807l-0.289,5.165
		c5.629,4.004,9.422,10.273,9.252,19.02c-0.14,7.278-0.393,20.298,5.82,25.126c-5.455,2.151-12.211,3.644-19.474,4.48
		c-8.483,9.333-19.864,9.344-28.355,0.014c-7.295-0.832-14.083-2.33-19.559-4.494c6.239-4.828,5.966-17.841,5.824-25.126
		c-0.17-8.783,3.655-15.065,9.321-19.068L126.162,39.831L126.162,39.831z M145.034,163.998c-2.04,0-4.027-0.023-5.976-0.068
		c-0.459-6.287-0.844-12.589-1.358-18.864c-0.62-7.555-1.898-28.675-6.307-34.53c-2.586-3.435-6.701-6.399-11.384-8.978
		c5.317-2.003,10.297-3.101,11.651-1.917c0.224,0.196,11.893,17.909,13.373,20.037c1.481-2.128,13.149-19.841,13.374-20.037
		c2.923-2.558,22.729,5.518,26.383,10.371c2.917,3.876,4.504,34.698,5.377,44.531c0.256,2.885-1.741,5.466-4.598,5.941
		C171.28,162.861,159.501,163.998,145.034,163.998L145.034,163.998z M156.907,127.529h16.736v5.579h-16.736V127.529L156.907,127.529
		z M137.435,47.23v-5.067h5.066v-5.065h5.067v5.065h5.065v5.067h-5.065v5.065h-5.067V47.23H137.435L137.435,47.23z M161.736,68.201
		c-1.174-5.482-6-7.627-7.471-14.07c-1.271,2.225-4.703,3.801-8.654,5.409c-6.919,2.205-15.479,4.367-16.967,11.004
		c1.682,10.012,11.856,29.902,23.404,18.732C157.275,84.219,161.018,75.454,161.736,68.201L161.736,68.201z"/>
	<path fill-rule="evenodd" clip-rule="evenodd" fill="#2A3276" d="M71.559,185.839c-18.081,0-36.256-1.418-54.116-4.39
		c-3.576-0.595-6.074-3.83-5.746-7.44c1.095-12.032,3.073-53.605,6.713-58.438c2.396-3.182,7.041-6.009,12.514-8.597
		c-0.705,2.218-1.13,4.598-1.286,7.044c-0.583,9.126,2.539,19.141,8.369,27.105c-2.843,5.937,1.453,12.976,8.181,12.976
		c5.007,0,9.066-4.058,9.066-9.065c0-6.272-6.193-10.586-12.028-8.57c-4.632-6.541-7.11-14.678-6.641-22.01
		c0.336-5.263,2.283-10.328,6.207-12.468c2.336-0.912,4.651-1.799,6.858-2.67c3.01,10.161,13.438,21.295,21.905,28.993
		c8.47-7.696,18.904-18.83,21.914-28.991c2.3,0.906,4.718,1.833,7.155,2.785c6.905,3.53,4.309,13.152,1.841,18.713
		c-8.375-1.551-16.171,2.572-19.362,11.197l-4.742,12.816c-1.752,4.734-0.234,10.064,3.623,13.133
		c1.311,4.5,7.662,4.738,9.275,0.308c1.323-3.636-1.912-7.247-5.62-6.441c-1.064-1.357-1.337-2.987-0.74-4.603l4.742-12.815
		c1.145-3.097,3.05-5.053,5.236-6.063c7.049-3.254,18.383,2.782,14.617,13.303l-4.606,12.865c-0.579,1.615-1.852,2.694-3.515,3.042
		c-2.311-2.993-7.118-2.337-8.448,1.318c-0.922,2.533,0.385,5.333,2.917,6.256c1.522,0.554,3.14,0.303,4.39-0.534
		c4.998,0.121,9.538-3.039,11.22-7.74l4.606-12.865c3.012-8.413-0.052-16.389-7.1-20.693c2.204-5.07,3.738-11.023,2.733-16.563
		c5.691,2.653,10.549,5.553,13.018,8.833c3.639,4.832,5.618,46.406,6.713,58.438c0.328,3.611-2.17,6.846-5.746,7.44
		C107.815,184.42,89.64,185.839,71.559,185.839L71.559,185.839z"/>
	<path fill="#C6D4E4" d="M66.523,50.319c-4.128,1.931-9.066,3.575-14.639,3.154c-0.31,3.474-0.6,3.96,0.257,9.529
		c0.148,0.961-0.733,1.88-1.852,1.524c-1.53-0.487-2.71-0.556-2.975-1.803c-0.304-1.431-0.92-4.321-1.985-6.728
		c-2.716-0.694-4.347-0.116-3.971,3.312c1.067,9.732,8.861,7.931,9.975,11.775C54.338,81.45,61.53,90.219,71.559,90.219
		c9.852,0,17.422-8.778,20.162-18.923c1.116-4.132,8.97-2.241,10.038-11.989c0.375-3.423-1.249-4.003-3.955-3.317
		c-1.081,2.443-1.701,5.383-2.014,6.867c-0.172,0.811-0.751,0.966-1.295,1.154c-1.206,0.418-2.994,1.207-3.423-0.449
		c-0.063-0.243-0.067-0.347-0.027-0.584c1.306-7.738-0.25-9.334-1.645-16.094c-7.059,4.497-17.272,9.313-27.242,10.273
		c-1.406,0.135-2.065-1.636-0.949-2.506C63.088,53.183,64.76,52.048,66.523,50.319L66.523,50.319z M39.562,47.857
		c-2.284-15.561,5.535-28.715,21.736-32.464c6.77-1.566,15.049-1.467,21.7,0.278c15.594,4.087,23.256,17.062,20.648,32.229
		c10.904,4.143,4.721,24.02-4.585,27.814c-10.465,30.459-44.536,30.463-55.004,0C34.532,71.833,28.699,51.704,39.562,47.857
		L39.562,47.857z"/>
</g>
</svg>
