<?xml version="1.0" encoding="utf-8"?>
<!-- Generator: Adobe Illustrator 17.0.0, SVG Export Plug-In . SVG Version: 6.00 Build 0)  -->
<!DOCTYPE svg PUBLIC "-//W3C//DTD SVG 1.1//EN" "http://www.w3.org/Graphics/SVG/1.1/DTD/svg11.dtd">
<svg version="1.1" id="Layer_1" xmlns="http://www.w3.org/2000/svg" xmlns:xlink="http://www.w3.org/1999/xlink" x="0px" y="0px"
	 width="512px" height="512px" viewBox="0 0 512 512" enable-background="new 0 0 512 512" xml:space="preserve">
<path fill="#273272" d="M474.414,122.438l24.832-24.828c4.125-4.129,5.484-10.277,3.48-15.758
	c-2.004-5.484-7.008-9.305-12.828-9.797l-46.066-3.887l-3.887-46.066c-0.488-5.816-4.313-10.82-9.793-12.824
	c-5.48-2.008-11.629-0.648-15.758,3.48l-24.832,24.828C349.406,12.965,303.492,0,256,0C187.621,0,123.332,26.629,74.98,74.98
	S0,187.621,0,256s26.629,132.668,74.98,181.02S187.621,512,256,512s132.668-26.629,181.02-74.98S512,324.379,512,256
	C512,208.508,499.035,162.598,474.414,122.438z M415,83.313c0.617,7.289,6.398,13.07,13.688,13.688l26.504,2.234l-35.875,35.875
	l-39.125-3.301l-3.301-39.125l35.875-35.875L415,83.313z M307,256c0,28.121-22.879,51-51,51s-51-22.879-51-51s22.879-51,51-51
	c8.613,0,16.727,2.152,23.848,5.938l-34.453,34.457c-5.859,5.855-5.859,15.352,0,21.211C248.32,269.535,252.16,271,256,271
	s7.68-1.465,10.605-4.395l34.457-34.453C304.848,239.273,307,247.387,307,256z M301.652,189.133
	C288.645,180.227,272.922,175,256,175c-44.664,0-81,36.336-81,81s36.336,81,81,81s81-36.336,81-81
	c0-16.922-5.227-32.645-14.133-45.652l42.828-42.828C385.262,191.73,397,222.52,397,256c0,77.746-63.254,141-141,141
	s-141-63.254-141-141s63.254-141,141-141c33.48,0,64.27,11.738,88.48,31.305L301.652,189.133z M415.805,415.805
	C373.121,458.492,316.367,482,256,482s-117.121-23.508-159.805-66.195C53.508,373.121,30,316.367,30,256
	S53.508,138.879,96.195,96.195C138.879,53.508,195.633,30,256,30c39.492,0,77.746,10.145,111.672,29.477l-16.918,16.918
	c-2.734,2.734-4.293,6.398-4.391,10.223c-0.012,0.547,0.004,1.094,0.047,1.645l2.02,23.934C321.762,94.992,290.027,85,256,85
	c-94.289,0-171,76.711-171,171s76.711,171,171,171s171-76.711,171-171c0-34.027-9.992-65.762-27.195-92.43l23.934,2.02
	c0.422,0.031,0.844,0.051,1.262,0.051c0.07,0,0.145-0.008,0.215-0.012c0.199,0,0.395-0.016,0.594-0.027
	c0.324-0.02,0.652-0.039,0.973-0.078c0.199-0.027,0.398-0.059,0.598-0.09c0.316-0.051,0.629-0.109,0.941-0.18
	c0.199-0.047,0.395-0.098,0.59-0.148c0.305-0.082,0.605-0.176,0.906-0.277c0.195-0.066,0.387-0.133,0.578-0.207
	c0.293-0.113,0.582-0.238,0.871-0.375c0.184-0.082,0.367-0.164,0.551-0.258c0.289-0.148,0.57-0.313,0.848-0.477
	c0.168-0.102,0.336-0.195,0.5-0.297c0.297-0.195,0.582-0.406,0.867-0.621c0.133-0.102,0.27-0.191,0.398-0.297
	c0.406-0.328,0.801-0.676,1.176-1.051l16.918-16.918C471.855,178.254,482,216.508,482,256
	C482,316.367,458.492,373.121,415.805,415.805z"/>
</svg>
