<?xml version="1.0" encoding="utf-8"?>
<!-- Generator: Adobe Illustrator 17.0.0, SVG Export Plug-In . SVG Version: 6.00 Build 0)  -->
<!DOCTYPE svg PUBLIC "-//W3C//DTD SVG 1.1//EN" "http://www.w3.org/Graphics/SVG/1.1/DTD/svg11.dtd">
<svg version="1.1" id="Layer_1" xmlns="http://www.w3.org/2000/svg" xmlns:xlink="http://www.w3.org/1999/xlink" x="0px" y="0px"
	 width="200px" height="200px" viewBox="0 0 200 200" enable-background="new 0 0 200 200" xml:space="preserve">
<path fill-rule="evenodd" clip-rule="evenodd" fill="#C6D4E4" d="M14.983,172.014h45.978c0.174-1.212,0.349-2.405,0.521-3.568
	c0.235-1.593,0.481-3.248,0.744-4.932H20.786l25.641-80.868h102.695l25.64,80.868h-41.387c0.263,1.686,0.508,3.339,0.744,4.934
	c0.172,1.161,0.347,2.354,0.52,3.566h45.926v-0.001c0.423,0,0.854-0.064,1.278-0.198c2.237-0.706,3.478-3.092,2.772-5.329
	l-7.053-22.245h5.218c3.401,0,5.658-2.659,5.658-5.97c0-24.886,0-49.771,0-74.656l0,0c0-6.162-5.632-7.549-11.16-9.551
	l-8.802,14.348l1.572-10.67l-2.113-0.05l-4.269,10.448l2.18-13.802c-2.523,0.927-7.503,2.533-8.817,5.288l-6.93,14.52h-25.454
	l-4.74-26.332c-0.743-4.128-3.234-5.69-5.283-6.502l-8.905-3.523c-1.087,4.344-2.951,13.493-4.964,17.509l-1.353-11.155L97.8,43.083
	l-1.602,1.061l-1.354,11.155c-2.013-4.015-3.876-13.165-4.963-17.509l-8.905,3.523c-2.05,0.811-4.541,2.374-5.283,6.502
	l-4.74,26.332h-25.48l-6.93-14.52c-1.314-2.755-6.295-4.361-8.818-5.288l2.181,13.802l-4.269-10.448l-2.113,0.05l1.572,10.67
	l-8.801-14.348"/>
<path fill-rule="evenodd" clip-rule="evenodd" fill="#C6D4E4" d="M97.8,35.727c9.378,0,15.997-25.5,0-25.5
	S88.421,35.727,97.8,35.727L97.8,35.727z"/>
<path fill-rule="evenodd" clip-rule="evenodd" fill="#C6D4E4" d="M171.79,47.907c10.941,0,18.663-29.75,0-29.75
	C153.127,18.157,160.849,47.907,171.79,47.907L171.79,47.907z"/>
<path fill-rule="evenodd" clip-rule="evenodd" fill="#C6D4E4" d="M23.783,47.907c10.941,0,18.663-29.75,0-29.75
	C5.121,18.157,12.842,47.907,23.783,47.907L23.783,47.907z"/>
<path fill="#2A3276" d="M104.508,135.935c-2.774-0.349-5.398-0.389-6.709-0.389c-1.337,0-4.039,0.042-6.872,0.411
	c-2.203-0.956-9.021-9.042-9.021-20.448c0-8.777,7.115-15.892,15.893-15.892c8.777,0,15.893,7.116,15.893,15.892
	C113.693,126.983,106.702,134.985,104.508,135.935L104.508,135.935z M84.405,141.92c-4.723,1.357-10.877,3.453-11.658,5.976
	c-2.817,9.086-6.494,34.712-6.504,43.803c19.355,0,43.758,0,63.114,0c-0.01-9.091-3.688-34.718-6.503-43.803
	c-0.782-2.523-6.937-4.619-11.66-5.976c0.786-1.325-4.005-3.408-13.395-3.408S83.619,140.596,84.405,141.92L84.405,141.92z"/>
</svg>
