<?xml version="1.0" encoding="utf-8"?>
<!-- Generator: Adobe Illustrator 17.0.0, SVG Export Plug-In . SVG Version: 6.00 Build 0)  -->
<!DOCTYPE svg PUBLIC "-//W3C//DTD SVG 1.1//EN" "http://www.w3.org/Graphics/SVG/1.1/DTD/svg11.dtd">
<svg version="1.1" id="Layer_1" xmlns="http://www.w3.org/2000/svg" xmlns:xlink="http://www.w3.org/1999/xlink" x="0px" y="0px"
	 width="200px" height="200px" viewBox="0 0 200 200" enable-background="new 0 0 200 200" xml:space="preserve">
<g>
	<path fill-rule="evenodd" clip-rule="evenodd" fill="#C6D4E4" d="M60.346,19.216c0-6.33,5.17-11.5,11.5-11.5h109.25
		c6.335,0,11.5,5.346,11.5,11.644v42.981c0,6.33-5.17,11.499-11.5,11.499h-37.605l-20.744,21.432
		c-1.774,1.832-4.89,0.547-4.89-2.026l0.006-19.406h-12.37c-0.175-0.215-0.358-0.42-0.549-0.614
		c0.414-2.646,0.678-5.347,0.674-8.011h12.245v0.034c4.745,0,8.591,3.846,8.591,8.591l-0.001,5.237l10.415-10.759
		c1.582-1.895,3.963-3.102,6.623-3.102h37.605c0.785,0,1.502-0.325,2.026-0.849s0.849-1.242,0.849-2.026V19.36
		c0-0.837-0.348-1.614-0.91-2.181c-0.507-0.514-1.203-0.837-1.965-0.837H71.846c-0.783,0-1.501,0.325-2.026,0.85
		c-0.524,0.524-0.849,1.241-0.849,2.025v12.879c-2.893-0.027-5.791,0.306-8.625,0.998V19.216L60.346,19.216z"/>
	<path fill-rule="evenodd" clip-rule="evenodd" fill="#2A3276" d="M50.121,46.299l-0.001-0.001
		c-4.565,4.077-9.049,5.859-10.756,13.756c-1.193,5.525-0.052,12.337,1.218,17.818c-1.575-0.403-3.145-0.314-3.62,1.401
		c-0.625,2.239-0.482,4.297,0.195,6.219c0.626,1.776,3.188,3.393,4.544,4.913c0.581,0.648,1.825,0.945,2.695,0.877
		c4.905,12.45,13.44,23.577,24.254,23.577c10.814,0,19.351-11.127,24.256-23.577c0.87,0.067,2.111-0.229,2.69-0.877
		c1.358-1.52,3.919-3.137,4.546-4.913c0.678-1.922,0.82-3.98,0.195-6.219c-0.476-1.717-2.047-1.804-3.623-1.4l0.017-0.098
		c1.261-5.465,2.382-12.229,1.196-17.722c-1.645-7.616-5.876-9.545-10.269-13.331C76.955,36.967,61.04,36.774,50.121,46.299
		L50.121,46.299z M68.65,129.115l-4.807,3.184l1.343,5.316l-5.405,29.626c-6.041-12.053-11.628-32.632-14.893-45.665
		c-9.742,3.779-23.326,4.934-28.177,14.755c-4.998,10.066-7.296,32.387-8.11,50.257c-0.063,1.389,0.393,2.608,1.355,3.613
		c0.96,1.007,2.158,1.518,3.547,1.518h110.292c1.39,0,2.587-0.511,3.547-1.518c0.962-1.005,1.418-2.224,1.355-3.613
		c-0.814-17.87-3.112-40.191-8.11-50.257c-4.852-9.82-18.435-10.976-28.177-14.755c-3.265,13.033-8.852,33.611-14.893,45.665
		l-5.405-29.626l1.343-5.316L68.65,129.115L68.65,129.115z"/>
</g>
</svg>
