<?xml version="1.0" encoding="utf-8"?>
<!-- Generator: Adobe Illustrator 16.0.0, SVG Export Plug-In . SVG Version: 6.00 Build 0)  -->
<!DOCTYPE svg PUBLIC "-//W3C//DTD SVG 1.1//EN" "http://www.w3.org/Graphics/SVG/1.1/DTD/svg11.dtd">
<svg version="1.1" id="Capa_1" xmlns="http://www.w3.org/2000/svg" xmlns:xlink="http://www.w3.org/1999/xlink" x="0px" y="0px"
	 width="200px" height="200px" viewBox="1406.75 108.25 200 200" enable-background="new 1406.75 108.25 200 200"
	 xml:space="preserve">
<g>
	<path fill="#C6D4E4" d="M1470.474,216.987c-17.163,0-31.972-12.211-35.245-29.051l-13.263-52.014
		c-0.015-0.058-0.027-0.118-0.039-0.176c-1.61-8.392,3.632-16.549,11.935-18.57l14.669-3.571c1.616-0.393,3.241,0.597,3.635,2.212
		c0.394,1.614-0.597,3.242-2.212,3.635l-14.668,3.572c-5.154,1.255-8.419,6.298-7.465,11.506l13.261,52.007
		c0.015,0.059,0.028,0.117,0.04,0.176c2.695,14.056,15.04,24.257,29.352,24.257c14.313,0,26.657-10.201,29.354-24.257
		c0.011-0.059,0.024-0.118,0.039-0.176l13.261-52.007c0.954-5.208-2.311-10.251-7.464-11.506l-14.669-3.572
		c-1.615-0.393-2.604-2.021-2.212-3.635c0.393-1.615,2.017-2.605,3.636-2.212l14.669,3.571c8.302,2.021,13.544,10.178,11.935,18.57
		c-0.012,0.059-0.024,0.118-0.039,0.176l-13.263,52.014C1502.444,204.776,1487.637,216.987,1470.474,216.987z"/>
	<g>
		<path fill="#2A3276" d="M1440.792,118.73c0.56,4.816,8.188,7.886,13.003,7.327s8.266-4.917,7.707-9.733
			c-0.561-4.816-4.918-8.266-9.733-7.706C1446.953,109.177,1440.232,113.916,1440.792,118.73z"/>
		<path fill="#2A3276" d="M1500.154,118.73c-0.559,4.816-8.187,7.886-13.002,7.327s-8.266-4.917-7.707-9.733
			c0.561-4.816,4.917-8.266,9.733-7.706C1493.994,109.177,1500.715,113.916,1500.154,118.73z"/>
	</g>
	<path fill="#2A3276" d="M1513.594,307.941c-26.705,0-48.432-21.726-48.432-48.43l0.003-39.58c0-0.581-0.42-1.077-0.993-1.173l0,0
		c-12.036-2.015-22.469-9.749-27.908-20.688c-0.806-1.618-0.723-3.511,0.219-5.063c0.953-1.572,2.616-2.532,4.447-2.567l0.096,0
		c1.99,0,3.877,1.192,4.806,3.038c4.722,9.371,14.164,15.193,24.642,15.193c10.4,0,20.105-6.03,24.727-15.361
		c0.863-1.743,2.713-2.869,4.713-2.869c1.855,0,3.547,0.943,4.526,2.524c0.967,1.562,1.06,3.47,0.246,5.106
		c-5.44,10.939-15.873,18.674-27.909,20.688l-0.19,0.02c-0.606,0.062-1.068,0.574-1.068,1.184l0.016,39.542
		c0,20.994,17.073,38.067,38.062,38.067h13.936c21.021,0,38.061-17.04,38.061-38.06v-89.418h10.369v89.417
		c0,26.747-21.682,48.431-48.43,48.431H1513.594z"/>
	<circle fill="#C6D4E4" cx="1570.15" cy="169.133" r="21.714"/>
	<path fill="#C6D4E4" d="M1572.152,147.514v43.236c11.053-1.012,19.709-10.302,19.709-21.618
		C1591.862,157.815,1583.205,148.526,1572.152,147.514z"/>
	<circle fill="#2A3276" cx="1570.15" cy="169.133" r="8.459"/>
</g>
</svg>
