<?xml version="1.0" encoding="utf-8"?>
<!-- Generator: Adobe Illustrator 17.0.0, SVG Export Plug-In . SVG Version: 6.00 Build 0)  -->
<!DOCTYPE svg PUBLIC "-//W3C//DTD SVG 1.1//EN" "http://www.w3.org/Graphics/SVG/1.1/DTD/svg11.dtd">
<svg version="1.1" id="Capa_1" xmlns="http://www.w3.org/2000/svg" xmlns:xlink="http://www.w3.org/1999/xlink" x="0px" y="0px"
	 width="404.75px" height="402px" viewBox="390.5 0 404.75 402" enable-background="new 390.5 0 404.75 402" xml:space="preserve">
<g>
	<g>
		<path fill="#273272" d="M502.459,62.908c-48.37,0-87.723,39.353-87.723,87.723s39.352,87.723,87.723,87.723
			c48.37,0,87.723-39.353,87.723-87.723S550.83,62.908,502.459,62.908z M502.459,226.553c-41.863,0-75.922-34.059-75.922-75.922
			s34.058-75.922,75.922-75.922c41.864,0,75.922,34.059,75.922,75.922S544.323,226.553,502.459,226.553z"/>
	</g>
</g>
<g>
	<g>
		<path fill="#273272" d="M528.737,137.65c3.258,0,5.9-2.642,5.9-5.9v-6.294c0-13.665-11.118-24.783-24.783-24.783h-0.393V87.691
			c0-3.258-2.642-5.9-5.9-5.9s-5.9,2.642-5.9,5.9v13.118c-14.113,1.388-25.176,13.321-25.176,27.793
			c0,15.401,12.529,27.93,27.93,27.93h6.294c8.893,0,16.129,7.235,16.129,16.129c0,8.893-7.235,16.129-16.129,16.129h-9.441
			c-7.158,0-12.982-5.824-12.982-12.982c0-3.258-2.642-5.9-5.9-5.9c-3.258,0-5.9,2.642-5.9,5.9
			c0,13.665,11.118,24.783,24.783,24.783h0.393v12.982c0,3.258,2.642,5.9,5.9,5.9c3.258,0,5.9-2.642,5.9-5.9v-13.118
			c14.113-1.388,25.176-13.321,25.176-27.793c0-15.401-12.529-27.93-27.93-27.93h-6.294c-8.893,0-16.129-7.235-16.129-16.129
			s7.235-16.129,16.129-16.129h9.441c7.158,0,12.982,5.824,12.982,12.982v6.294C522.836,135.008,525.478,137.65,528.737,137.65z"/>
	</g>
</g>
<g>
	<g>
		<path fill="#273272" d="M596.87,288.707c3.258,0,5.9-2.642,5.9-5.9v-37.764c0-3.258-2.642-5.9-5.9-5.9H433.225
			c-3.258,0-5.9,2.642-5.9,5.9v31.864h-6.687c-3.258,0-5.9,2.642-5.9,5.9v37.764c0,3.258,2.642,5.9,5.9,5.9h6.687v25.963h-6.687
			c-3.258,0-5.9,2.642-5.9,5.9V396.1c0,3.258,2.642,5.9,5.9,5.9h163.645c3.258,0,5.9-2.642,5.9-5.9v-31.864h6.687
			c3.258,0,5.9-2.642,5.9-5.9v-37.764c0-3.258-2.642-5.9-5.9-5.9h-6.687v-25.963L596.87,288.707L596.87,288.707z M426.537,314.67
			v-25.963h151.845v25.963H426.537z M578.382,390.199H426.537v-25.963h151.845V390.199z M590.97,326.472v25.963H439.125v-25.963
			H590.97z M439.125,276.906v-25.963H590.97v25.963L439.125,276.906L439.125,276.906z"/>
	</g>
</g>
<g>
	<g>
		<path fill="#273272" d="M783.953,109.116L695.835,2.117c-2.324-2.822-6.786-2.822-9.11,0l-88.117,106.999
			c-3.11,3.777-0.327,9.652,4.555,9.652h38.158v182.921c0,3.258,2.642,5.9,5.901,5.9h88.117c3.258,0,5.9-2.642,5.9-5.9v-24.783
			c0-3.258-2.642-5.9-5.9-5.9c-3.258,0-5.901,2.642-5.901,5.9v18.882h-76.315V112.867c0-3.258-2.642-5.9-5.9-5.9h-31.555
			l75.613-91.816l75.613,91.816H735.34c-3.258,0-5.9,2.642-5.9,5.9v136.109c0,3.258,2.642,5.9,5.9,5.9
			c3.258,0,5.901-2.642,5.901-5.9V118.767h38.158C784.279,118.767,787.063,112.893,783.953,109.116z"/>
	</g>
</g>
<g>
	<g>
		<path fill="#273272" d="M735.34,327.259h-88.117c-3.258,0-5.901,2.642-5.901,5.9s2.642,5.9,5.901,5.9h88.117
			c3.258,0,5.9-2.642,5.9-5.9S738.598,327.259,735.34,327.259z"/>
	</g>
</g>
<g>
	<g>
		<path fill="#273272" d="M735.34,358.728h-88.117c-3.258,0-5.901,2.642-5.901,5.9s2.642,5.9,5.901,5.9h88.117
			c3.258,0,5.9-2.642,5.9-5.9S738.598,358.728,735.34,358.728z"/>
	</g>
</g>
<g>
	<g>
		<path fill="#273272" d="M735.34,390.199h-88.117c-3.258,0-5.901,2.642-5.901,5.9c0,3.258,2.642,5.9,5.901,5.9h88.117
			c3.258,0,5.9-2.642,5.9-5.9C741.24,392.841,738.598,390.199,735.34,390.199z"/>
	</g>
</g>
</svg>
