<?xml version="1.0" encoding="utf-8"?>
<!-- Generator: Adobe Illustrator 17.0.0, SVG Export Plug-In . SVG Version: 6.00 Build 0)  -->
<!DOCTYPE svg PUBLIC "-//W3C//DTD SVG 1.1//EN" "http://www.w3.org/Graphics/SVG/1.1/DTD/svg11.dtd">
<svg version="1.1" id="Layer_1" xmlns="http://www.w3.org/2000/svg" xmlns:xlink="http://www.w3.org/1999/xlink" x="0px" y="0px"
	 width="200px" height="200px" viewBox="0 0 200 200" enable-background="new 0 0 200 200" xml:space="preserve">
<path fill="#C6D4E4" d="M52.249,43.969v19.624c-0.49-0.014-0.981-0.022-1.474-0.022c-4.506,0-8.879,0.57-13.05,1.643V35.969"/>
<path fill="#C6D4E4" d="M193.135,12.727v171.407c0,4.012-3.252,7.263-7.262,7.263H44.987c-4.011,0-7.262-3.251-7.262-7.263v-17.62
	c4.172,1.072,8.544,1.643,13.05,1.643c0.493,0,0.984-0.008,1.474-0.021v8.735H178.61V19.99"/>
<path fill="#C6D4E4" d="M98.315,94.074h52.697v8.716h-49.599C100.635,99.771,99.593,96.857,98.315,94.074L98.315,94.074z"/>
<path fill="#C6D4E4" d="M96.873,140.557h54.14v8.716H90.997C93.234,146.583,95.205,143.664,96.873,140.557L96.873,140.557z"/>
<path fill="#C6D4E4" d="M103.041,117.316h47.972v8.716H102.07C102.628,123.201,102.96,120.29,103.041,117.316L103.041,117.316z"/>
<path fill="#2A3276" d="M50.931,72.454c-24.064,0-43.572,19.51-43.572,43.577c0,24.068,19.508,43.578,43.572,43.578
	s43.572-19.51,43.572-43.578C94.503,91.964,74.995,72.454,50.931,72.454z M45.976,113.669h11.977v5.813H47.671
	c0.083,0.688,0.125,1.198,0.125,1.531c0,4.104-1.422,7.563-4.264,10.375h22.656v7.156H34.984l-1.406-4.656
	c1.916-1.833,3.313-3.724,4.188-5.672c0.875-1.947,1.313-4.369,1.313-7.266c0-0.291-0.041-0.781-0.121-1.469H32.14v-5.813h5.031
	c-0.813-2.751-1.219-5.321-1.219-7.71c0-4.604,1.42-8.169,4.262-10.692c2.841-2.523,6.604-3.785,11.289-3.785
	s8.322,1.323,10.908,3.969c2.588,2.646,3.903,6.011,3.947,10.094H57.64c0-4.458-2.129-6.688-6.385-6.688
	c-2.061,0-3.674,0.613-4.838,1.84s-1.746,2.986-1.746,5.279S45.106,110.833,45.976,113.669z"/>
<path fill="#2A3276" d="M110.496,27.049h38.906c0.734,0,1.408,0.261,1.933,0.696c-2.733,1.855-5.486,3.853-8.283,5.37h-20.237
	c-0.359,0-0.719,0-1.08,0h-8.223v32.855h32.855V51.305c2.022-1.943,4.044-3.927,6.066-5.921v23.61c0,1.675-1.356,3.041-3.031,3.041
	h-38.906c-1.675,0-3.049-1.366-3.049-3.041V30.087C107.448,28.413,108.821,27.049,110.496,27.049L110.496,27.049z"/>
<path fill-rule="evenodd" clip-rule="evenodd" fill="#2A3276" d="M123.698,39.573c-0.611-2.229-5.448-1.715-5.448,0.677
	c0.001,7.41,0.498,10.198,1.739,16.776c0.432,2.29,3.985,5.134,5.886,3.784c13.422-9.529,19.112-16.435,30.946-27.876
	c1.817-1.757-0.428-3.216-1.99-2.136c-11.455,7.924-17.021,10.53-28.198,17.456C124.908,44.912,124.5,42.497,123.698,39.573
	L123.698,39.573z"/>
</svg>
