<?xml version="1.0" encoding="utf-8"?>
<!-- Generator: Adobe Illustrator 16.0.0, SVG Export Plug-In . SVG Version: 6.00 Build 0)  -->
<!DOCTYPE svg PUBLIC "-//W3C//DTD SVG 1.1//EN" "http://www.w3.org/Graphics/SVG/1.1/DTD/svg11.dtd">
<svg version="1.1" id="Capa_1" xmlns="http://www.w3.org/2000/svg" xmlns:xlink="http://www.w3.org/1999/xlink" x="0px" y="0px"
	 width="200px" height="200px" viewBox="837.887 87.813 200 200" enable-background="new 837.887 87.813 200 200"
	 xml:space="preserve">
<g id="_x34_3_search_1_">
	<path fill="#2A3276" d="M919.006,192.555l14.125,14.123l-40.607,40.607l-14.122-14.125L919.006,192.555z"/>
	<path fill="#C6D4E4" d="M844.815,280.885c-6.631-6.633-6.631-17.385,0-24.016l45.439-45.44c2.472-2.47,6.477-2.47,8.947,0
		l15.068,15.069c2.471,2.47,2.471,6.475,0,8.947l-45.44,45.44C862.199,287.514,851.447,287.514,844.815,280.885L844.815,280.885z"/>
	<circle fill="#2A3276" cx="967.668" cy="158.032" r="68.263"/>
	<circle fill="#C6D4E4" cx="967.668" cy="158.031" r="48.887"/>
	<path fill="#2A3276" d="M1015.938,109.762c-1.598-1.597-3.255-3.096-4.964-4.501c22.059,26.815,20.562,66.514-4.501,91.575
		c-25.062,25.061-64.759,26.56-91.575,4.501c1.405,1.709,2.904,3.366,4.502,4.963c26.658,26.658,69.88,26.658,96.538,0
		C1042.597,179.642,1042.597,136.42,1015.938,109.762L1015.938,109.762z"/>
	<path fill="#C6D4E4" d="M914.271,226.498l-9.466-9.466c2.471,2.472,2.471,6.477,0,8.947l-45.439,45.439
		c-4.949,4.951-12.196,6.203-18.311,3.764c0.829,2.074,2.081,4.021,3.761,5.701c6.633,6.631,17.384,6.631,24.015,0l45.44-45.439
		C916.741,232.973,916.741,228.968,914.271,226.498z"/>
	<path fill="#C6D4E4" d="M1002.236,123.463c-1.298-1.298-2.652-2.504-4.053-3.625c15.346,19.177,14.14,47.32-3.624,65.083
		c-17.762,17.764-45.906,18.971-65.084,3.625c1.121,1.4,2.327,2.756,3.625,4.053c19.062,19.062,50.075,19.062,69.136,0
		C1021.296,173.539,1021.296,142.524,1002.236,123.463z"/>
</g>
</svg>
