<?xml version="1.0" encoding="utf-8"?>
<!-- Generator: Adobe Illustrator 17.0.0, SVG Export Plug-In . SVG Version: 6.00 Build 0)  -->
<!DOCTYPE svg PUBLIC "-//W3C//DTD SVG 1.1//EN" "http://www.w3.org/Graphics/SVG/1.1/DTD/svg11.dtd">
<svg version="1.1" id="Layer_1" xmlns="http://www.w3.org/2000/svg" xmlns:xlink="http://www.w3.org/1999/xlink" x="0px" y="0px"
	 width="200px" height="200px" viewBox="0 0 200 200" enable-background="new 0 0 200 200" xml:space="preserve">
<g>
	<path fill="#C6D4E4" d="M120.223,35.452v11.395c0,0.391,0.337,0.729,0.729,0.729h11.364L120.223,35.452L120.223,35.452z
		 M105.648,21.341H22.574v157.404h123.882v-4.912c4.816,0.788,9.759,0.788,14.574,0v12.199c0,4.025-3.263,7.287-7.287,7.287H15.287
		c-4.024,0-7.287-3.262-7.287-7.287V14.054c0-4.025,3.262-7.287,7.287-7.287h93.246c5.152,0,9.773,1.946,13.407,5.589l33.551,33.637
		c3.588,3.597,5.539,8.274,5.539,13.358v25.303c-4.816-0.789-9.759-0.789-14.574,0V62.15h-25.505
		c-8.438,0-15.303-6.865-15.303-15.303V21.341L105.648,21.341z"/>
	<polygon fill-rule="evenodd" clip-rule="evenodd" fill="#2A3276" points="85.244,116.068 37.148,116.068 37.148,124.813 
		85.244,124.813 85.244,116.068 	"/>
	<polygon fill-rule="evenodd" clip-rule="evenodd" fill="#2A3276" points="85.244,135.744 37.148,135.744 37.148,144.488 
		85.244,144.488 85.244,135.744 	"/>
	<polygon fill-rule="evenodd" clip-rule="evenodd" fill="#2A3276" points="85.244,155.419 37.148,155.419 37.148,164.164 
		85.244,164.164 85.244,155.419 	"/>
	<polygon fill-rule="evenodd" clip-rule="evenodd" fill="#2A3276" points="85.244,58.08 37.148,58.08 37.148,66.824 85.244,66.824 
		85.244,58.08 	"/>
	<polygon fill-rule="evenodd" clip-rule="evenodd" fill="#2A3276" points="85.244,77.755 37.148,77.755 37.148,86.5 85.244,86.5 
		85.244,77.755 	"/>
	<polygon fill-rule="evenodd" clip-rule="evenodd" fill="#2A3276" points="85.244,97.431 37.148,97.431 37.148,106.176 
		85.244,106.176 85.244,97.431 	"/>
	<path fill-rule="evenodd" clip-rule="evenodd" fill="#2A3276" d="M153.744,92.807c-20.123,0-36.436,16.312-36.436,36.435
		c0,20.124,16.313,36.436,36.436,36.436c20.123,0,36.436-16.312,36.436-36.436C190.18,109.12,173.867,92.807,153.744,92.807z
		 M175.606,135.073c0,0.803-0.654,1.457-1.457,1.457h-11.66c-0.803,0-1.457,0.655-1.457,1.457v11.66
		c0,0.803-0.655,1.457-1.457,1.457h-11.66c-0.803,0-1.457-0.655-1.457-1.457v-11.661c0-0.802-0.655-1.456-1.457-1.456h-11.66
		c-0.803,0-1.457-0.655-1.457-1.457v-11.66c0-0.803,0.655-1.459,1.457-1.459H145c0.803,0,1.457-0.653,1.457-1.456v-11.661
		c0-0.802,0.654-1.457,1.457-1.457h11.66c0.803,0,1.457,0.655,1.457,1.457v11.661c0,0.803,0.655,1.457,1.457,1.457h11.66
		c0.803,0,1.457,0.655,1.457,1.457V135.073z"/>
</g>
</svg>
