<?xml version="1.0" encoding="utf-8"?>
<!-- Generator: Adobe Illustrator 16.0.0, SVG Export Plug-In . SVG Version: 6.00 Build 0)  -->
<!DOCTYPE svg PUBLIC "-//W3C//DTD SVG 1.1//EN" "http://www.w3.org/Graphics/SVG/1.1/DTD/svg11.dtd">
<svg version="1.1" id="Layer_1" xmlns="http://www.w3.org/2000/svg" xmlns:xlink="http://www.w3.org/1999/xlink" x="0px" y="0px"
	 width="200px" height="200px" viewBox="2454.451 415.897 200 200" enable-background="new 2454.451 415.897 200 200"
	 xml:space="preserve">
<g>
	<path fill="#C6D4E4" d="M2610.165,544.758c-7.816,10.736-20.48,17.73-34.748,17.73h-20.019c-6.915,0-12.804-4.391-15.034-10.535
		c-2.753-0.822-5.452-1.889-8.086-3.195c-5.578-2.773-10.643-6.527-15.104-11.18c-28.921,6.354-50.566,32.125-50.566,62.955v4.031
		c0,5.539,4.49,10.029,10.029,10.029h155.627c5.539,0,10.029-4.49,10.029-10.029v-4.031
		C2642.294,576.717,2629.375,555.918,2610.165,544.758z"/>
	<ellipse fill="#C6D4E4" cx="2554.648" cy="483.894" rx="32.866" ry="43.426"/>
	<g>
		<path fill="#2A3276" d="M2609.067,467.633c-2.228-28.182-25.871-50.433-54.616-50.433c-28.746,0-52.389,22.251-54.616,50.432
			c-2.871,2.075-4.741,5.45-4.741,9.263v28.587c0,6.324,5.139,11.422,11.421,11.422c4.262,0,7.976-2.338,9.938-5.795
			c0,0,0.592-1.166,0.592-1.941c0-0.771,0-34.608,0-35.751c0-1.145-0.592-2.147-0.592-2.147c-0.736-1.296-1.718-2.435-2.885-3.352
			c2.054-20.75,19.604-37.01,40.883-37.01s38.831,16.261,40.881,37.009c-1.347,1.06-2.449,2.414-3.209,3.967
			c-0.183,0.447-0.464,1.105-0.464,1.722v34.413c0,1.217,0.45,2.508,0.717,2.965c0.785,1.426,1.864,2.666,3.158,3.639v4.908
			c0,11.092-9.023,20.117-20.117,20.117h-20.019c-3.784,0-6.853,3.068-6.853,6.852c0,3.785,3.068,6.852,6.853,6.852h20.019
			c18.65,0,33.823-15.17,33.823-33.82v-4.908c2.773-2.086,4.568-5.4,4.568-9.139v-20.663v-7.924
			C2613.809,473.082,2611.938,469.708,2609.067,467.633z"/>
	</g>
</g>
</svg>
