<?xml version="1.0" encoding="utf-8"?>
<!-- Generator: Adobe Illustrator 17.0.0, SVG Export Plug-In . SVG Version: 6.00 Build 0)  -->
<!DOCTYPE svg PUBLIC "-//W3C//DTD SVG 1.1//EN" "http://www.w3.org/Graphics/SVG/1.1/DTD/svg11.dtd">
<svg version="1.1" id="Layer_1" xmlns="http://www.w3.org/2000/svg" xmlns:xlink="http://www.w3.org/1999/xlink" x="0px" y="0px"
	 width="358px" height="533px" viewBox="0 0 358 533" enable-background="new 0 0 358 533" xml:space="preserve">
<path fill="#273272" d="M302.563,137.541V102.18h5.219c12.84,0.035,23.317-10.263,23.513-23.099V29.124
	C331.104,16.28,320.63,5.974,307.783,5.99H27.509C14.661,5.974,4.187,16.28,4,29.124v49.957
	c0.195,12.836,10.669,23.134,23.509,23.099h5.223v35.361c-0.02,16.747,7.612,32.585,20.721,43.004l93.98,75.137L55.3,327.149
	c-13.488,10.392-21.373,26.48-21.319,43.512v38.827h-6.473C14.669,409.453,4.195,419.751,4,432.587v49.957
	c0.187,12.844,10.661,23.15,23.509,23.134h280.274c12.847,0.016,23.321-10.29,23.513-23.134v-49.957
	c-0.195-12.836-10.673-23.134-23.513-23.099h-3.97v-38.581c-0.078-17.2-8.136-33.389-21.811-43.824l-94.008-71.498l93.863-75.043
	C294.963,170.122,302.591,154.28,302.563,137.541z M28.984,30.974h277.327v46.221H28.984V30.974z M306.311,480.693H28.984v-46.221
	h15.334c0.718,0,1.444,0.203,2.198,0.203c0.75,0,1.483-0.203,2.202-0.203h240.24c0.714,0,1.448,0.203,2.198,0.203
	c0.753,0,1.483-0.203,2.198-0.203h12.957V480.693z M278.828,370.906v38.581H58.966V370.66c-0.02-9.307,4.286-18.094,11.665-23.77
	l97.08-75.304l99.161,75.379C274.35,352.664,278.77,361.506,278.828,370.906z M266.231,161.03l-98.559,78.81l-98.595-78.81
	c-7.175-5.684-11.36-14.335-11.36-23.489V102.18h219.863v35.361C277.579,146.695,273.402,155.342,266.231,161.03z"/>
</svg>
